<?xml version="1.0" standalone="no"?>
<!DOCTYPE svg PUBLIC "-//W3C//DTD SVG 20010904//EN"
 "http://www.w3.org/TR/2001/REC-SVG-20010904/DTD/svg10.dtd">
<svg version="1.0" xmlns="http://www.w3.org/2000/svg"
 width="158.000000pt" height="158.000000pt" viewBox="0 0 158.000000 158.000000"
 preserveAspectRatio="xMidYMid meet">
<metadata>
Created by potrace 1.14, written by Peter Selinger 2001-2017
</metadata>
<g transform="translate(0.000000,158.000000) scale(0.100000,-0.100000)"
fill="#000000" stroke="none">
<path d="M740 1565 c-24 -13 -49 -46 -53 -72 -5 -35 -18 -43 -65 -41 -36 1
-51 7 -68 27 -20 23 -32 27 -101 31 -108 7 -158 -1 -191 -31 -23 -21 -38 -26
-97 -28 -82 -3 -123 -22 -146 -69 -14 -28 -16 -102 -17 -649 -1 -682 -2 -671
61 -709 31 -18 63 -18 722 -19 753 0 735 -1 771 58 18 31 19 57 20 657 2 595
1 627 -17 662 -25 48 -64 68 -141 71 l-61 2 -11 39 c-6 22 -23 48 -39 60 -27
20 -40 21 -288 21 -164 0 -267 -4 -279 -10z m-485 -326 c25 -25 -3 -40 -77
-44 -91 -3 -131 18 -98 51 17 17 157 11 175 -7z m-7 -102 c18 -12 15 -35 -5
-45 -15 -7 -82 -9 -144 -3 -23 1 -31 27 -15 44 14 14 142 17 164 4z m674 -8
c263 -88 374 -403 222 -630 -102 -153 -274 -223 -454 -184 -19 4 -61 21 -93
38 -150 79 -242 239 -230 403 20 275 295 461 555 373z"/>
<path d="M695 1036 c-88 -28 -152 -82 -193 -163 -120 -236 85 -510 345 -462
123 23 236 129 258 240 9 42 6 133 -4 167 -52 171 -239 271 -406 218z m115
-91 c0 -8 -6 -15 -12 -15 -34 0 -92 -24 -122 -50 -32 -29 -59 -79 -70 -132
-11 -47 -29 -33 -24 17 10 83 79 157 167 181 60 16 61 16 61 -1z m34 -164 c29
-32 28 -71 -4 -102 -16 -16 -35 -29 -44 -29 -33 0 -66 24 -77 58 -10 29 -9 38
8 60 31 42 85 48 117 13z"/>
</g>
</svg>
